<?xml version="1.0" encoding="UTF-8"?>
<svg xmlns="http://www.w3.org/2000/svg" xmlns:xlink="http://www.w3.org/1999/xlink" width="415.58pt" height="238.96pt" viewBox="0 0 415.58 238.96" version="1.1">
<defs>
<clipPath id="clip1">
  <path d="M 0 0 L 415.578125 0 L 415.578125 238.960938 L 0 238.960938 Z M 0 0 "/>
</clipPath>
</defs>
<g id="surface1">
<g clip-path="url(#clip1)" clip-rule="nonzero">
<path style=" stroke:none;fill-rule:nonzero;fill:rgb(100%,100%,100%);fill-opacity:1;" d="M 0 238.960938 L 415.585938 238.960938 L 415.585938 0 L 0 0 Z M 0 238.960938 "/>
</g>
<path style=" stroke:none;fill-rule:nonzero;fill:rgb(97.253418%,59.999084%,10.980225%);fill-opacity:1;" d="M 64.410156 53.035156 C 64.410156 61.871094 57.25 69.027344 48.414063 69.027344 C 39.585938 69.027344 32.417969 61.871094 32.417969 53.035156 C 32.417969 44.207031 39.585938 37.042969 48.414063 37.042969 C 57.25 37.042969 64.410156 44.207031 64.410156 53.035156 "/>
<path style=" stroke:none;fill-rule:nonzero;fill:rgb(97.253418%,59.999084%,10.980225%);fill-opacity:1;" d="M 128.390625 53.035156 C 128.390625 61.871094 121.226563 69.027344 112.390625 69.027344 C 103.5625 69.027344 96.398438 61.871094 96.398438 53.035156 C 96.398438 44.207031 103.5625 37.042969 112.390625 37.042969 C 121.226563 37.042969 128.390625 44.207031 128.390625 53.035156 "/>
<path style=" stroke:none;fill-rule:nonzero;fill:rgb(97.253418%,59.999084%,10.980225%);fill-opacity:1;" d="M 192.367188 53.035156 C 192.367188 61.871094 185.214844 69.027344 176.382813 69.027344 C 167.550781 69.027344 160.382813 61.871094 160.382813 53.035156 C 160.382813 44.207031 167.550781 37.042969 176.382813 37.042969 C 185.214844 37.042969 192.367188 44.207031 192.367188 53.035156 "/>
<path style=" stroke:none;fill-rule:nonzero;fill:rgb(97.253418%,59.999084%,10.980225%);fill-opacity:1;" d="M 64.183594 117.003906 C 64.183594 125.839844 57.019531 132.996094 48.183594 132.996094 C 39.355469 132.996094 32.191406 125.839844 32.191406 117.003906 C 32.191406 108.171875 39.355469 101.003906 48.183594 101.003906 C 57.019531 101.003906 64.183594 108.171875 64.183594 117.003906 "/>
<path style=" stroke:none;fill-rule:nonzero;fill:rgb(97.253418%,59.999084%,10.980225%);fill-opacity:1;" d="M 128.167969 117.003906 C 128.167969 125.839844 121 132.996094 112.167969 132.996094 C 103.335938 132.996094 96.164063 125.839844 96.164063 117.003906 C 96.164063 108.171875 103.335938 101.003906 112.167969 101.003906 C 121 101.003906 128.167969 108.171875 128.167969 117.003906 "/>
<path style=" stroke:none;fill-rule:nonzero;fill:rgb(97.253418%,59.999084%,10.980225%);fill-opacity:1;" d="M 64.183594 180.964844 C 64.183594 189.800781 57.019531 196.964844 48.183594 196.964844 C 39.355469 196.964844 32.191406 189.800781 32.191406 180.964844 C 32.191406 172.125 39.355469 164.96875 48.183594 164.96875 C 57.019531 164.96875 64.183594 172.125 64.183594 180.964844 "/>
<path style=" stroke:none;fill-rule:nonzero;fill:rgb(97.253418%,59.999084%,10.980225%);fill-opacity:1;" d="M 128.167969 180.964844 C 128.167969 189.800781 121 196.964844 112.167969 196.964844 C 103.335938 196.964844 96.164063 189.800781 96.164063 180.964844 C 96.164063 172.125 103.335938 164.96875 112.167969 164.96875 C 121 164.96875 128.167969 172.125 128.167969 180.964844 "/>
<path style=" stroke:none;fill-rule:nonzero;fill:rgb(97.253418%,59.999084%,10.980225%);fill-opacity:1;" d="M 192.152344 180.964844 C 192.152344 189.800781 184.992188 196.964844 176.152344 196.964844 C 167.316406 196.964844 160.160156 189.800781 160.160156 180.964844 C 160.160156 172.125 167.316406 164.96875 176.152344 164.96875 C 184.992188 164.96875 192.152344 172.125 192.152344 180.964844 "/>
<path style=" stroke:none;fill-rule:nonzero;fill:rgb(0%,47.842407%,76.077271%);fill-opacity:1;" d="M 198.058594 134.066406 C 196.113281 134.589844 194.015625 134.757813 192.128906 135.410156 C 195.339844 132.652344 195.160156 128.386719 197.296875 125.136719 C 197.980469 124.222656 198.550781 123.257813 199.34375 122.378906 C 198.035156 125 198.597656 128.402344 197.105469 130.9375 C 196.523438 131.941406 195.703125 132.921875 194.785156 133.722656 C 195.09375 133.710938 195.347656 133.445313 195.609375 133.273438 C 198.046875 130.847656 201.226563 130.167969 203.851563 128.191406 C 204.917969 127.351563 205.882813 126.25 206.351563 125.054688 C 205.847656 129.089844 201.835938 132.863281 198.058594 134.066406 "/>
<path style=" stroke:none;fill-rule:nonzero;fill:rgb(0%,47.842407%,76.077271%);fill-opacity:1;" d="M 206.832031 117.746094 C 205.644531 119.445313 204.195313 121.019531 203.09375 122.738281 C 203.222656 121.378906 203.382813 119.707031 202.851563 118.40625 C 201.9375 115.628906 201.121094 112.796875 200.859375 109.75 L 200.894531 108.574219 C 201.589844 111.695313 204.65625 113.847656 204.46875 117.347656 C 204.535156 118.195313 204.265625 118.90625 204.105469 119.65625 L 204.160156 119.714844 L 204.304688 119.550781 C 204.757813 117.84375 204.992188 116.039063 205.6875 114.4375 C 206.703125 112.128906 207.945313 109.808594 207.445313 107.015625 C 208.972656 110.304688 208.511719 114.683594 206.832031 117.746094 "/>
<path style=" stroke:none;fill-rule:nonzero;fill:rgb(0%,47.842407%,76.077271%);fill-opacity:1;" d="M 204.960938 100.078125 C 206.960938 102.800781 207.398438 107.136719 205.9375 110.265625 C 205.398438 111.585938 205.015625 112.992188 204.792969 114.457031 C 204.6875 114.207031 204.667969 113.867188 204.578125 113.582031 C 203.777344 110.535156 200.878906 108.359375 199.699219 105.46875 C 199.320313 104.523438 199.003906 103.558594 198.820313 102.523438 C 200.097656 104.882813 203.222656 106.089844 204.070313 108.6875 C 204.429688 109.347656 204.402344 110.152344 204.613281 110.867188 C 204.667969 110.867188 204.710938 110.828125 204.710938 110.785156 C 204.324219 108.125 204.453125 105.316406 204.816406 102.695313 C 204.792969 101.261719 204.65625 99.882813 203.851563 98.773438 C 204.359375 99.066406 204.601563 99.636719 204.960938 100.078125 "/>
<path style=" stroke:none;fill-rule:nonzero;fill:rgb(0%,47.842407%,76.077271%);fill-opacity:1;" d="M 203.53125 99.5625 C 204.058594 101.941406 203.289063 104.269531 203.777344 106.679688 L 203.757813 106.703125 C 202.460938 104.144531 199.707031 102.9375 197.8125 100.894531 C 196.710938 99.679688 196.238281 98.203125 195.964844 96.640625 C 197.042969 99.261719 199.980469 99.84375 201.660156 102.046875 C 202.230469 102.546875 202.414063 103.257813 202.769531 103.828125 L 202.824219 103.777344 C 201.859375 101.710938 201.53125 99.386719 200.859375 97.1875 C 200.519531 96.230469 199.851563 95.292969 198.957031 94.695313 C 201.160156 95.148438 203.074219 97.441406 203.53125 99.5625 "/>
<path style=" stroke:none;fill-rule:nonzero;fill:rgb(0%,47.842407%,76.077271%);fill-opacity:1;" d="M 197.617188 94.085938 C 199.296875 95.570313 200.042969 97.5 200.53125 99.507813 L 200.800781 100.136719 C 198.394531 98.398438 196.207031 96.0625 194.660156 93.601563 L 192.78125 91.691406 C 194.429688 92.394531 196.21875 92.8125 197.617188 94.085938 "/>
<path style=" stroke:none;fill-rule:nonzero;fill:rgb(0%,47.842407%,76.077271%);fill-opacity:1;" d="M 159.488281 92.007813 C 157.832031 93.472656 156.671875 95.324219 155.433594 97.050781 C 154.316406 98.421875 152.914063 99.328125 151.648438 100.511719 C 152.320313 99.105469 152.339844 97.417969 153.3125 96.132813 C 154.691406 93.734375 157.230469 92.894531 159.488281 92.007813 "/>
<path style=" stroke:none;fill-rule:nonzero;fill:rgb(0%,47.842407%,76.077271%);fill-opacity:1;" d="M 150.371094 97.105469 C 151.175781 96.09375 152.207031 95.390625 153.367188 95.105469 C 151.121094 96.640625 151.273438 99.410156 150.554688 101.710938 C 150.328125 102.5625 149.9375 103.347656 149.742188 104.226563 L 149.804688 104.269531 C 150.171875 103.28125 150.832031 102.351563 151.648438 101.542969 C 153.246094 100.070313 155.601563 99.15625 156.390625 96.96875 C 156.351563 100 153.820313 102.382813 151.402344 104.082031 C 150.40625 104.957031 149.445313 105.960938 148.898438 107.078125 C 148.839844 106.320313 149.007813 105.550781 148.957031 104.734375 C 148.695313 102.089844 148.496094 99.066406 150.371094 97.105469 "/>
<path style=" stroke:none;fill-rule:nonzero;fill:rgb(0%,47.842407%,76.077271%);fill-opacity:1;" d="M 145.820313 106.15625 C 145.746094 103.46875 146.875 101.28125 148.433594 99.285156 C 148.480469 99.261719 148.507813 99.214844 148.566406 99.230469 C 146.847656 101.851563 148.273438 105.152344 148.199219 108.140625 L 147.972656 111.1875 C 148 111.210938 148 111.300781 148.082031 111.269531 C 148.1875 110.933594 148.210938 110.566406 148.273438 110.207031 C 148.679688 107.75 150.820313 106.007813 152.6875 104.300781 C 153.085938 103.851563 153.441406 103.402344 153.644531 102.882813 C 153.492188 104.105469 153.105469 105.339844 152.589844 106.480469 C 151.144531 109.324219 148.457031 111.644531 147.972656 114.886719 C 147.726563 111.78125 145.613281 109.457031 145.820313 106.15625 "/>
<path style=" stroke:none;fill-rule:nonzero;fill:rgb(0%,47.842407%,76.077271%);fill-opacity:1;" d="M 144.511719 109.96875 C 144.710938 109.128906 144.859375 108.269531 145.21875 107.496094 C 144.523438 111.039063 146.917969 113.582031 147.699219 116.660156 C 148.023438 117.8125 148.105469 119.050781 148.566406 120.121094 C 148.617188 120.140625 148.652344 120.097656 148.679688 120.058594 C 147.507813 116.792969 149.191406 113.761719 150.878906 111.210938 C 151.292969 110.519531 151.53125 109.75 151.734375 108.964844 C 151.910156 110.429688 151.542969 112.128906 151.324219 113.660156 C 150.914063 115.613281 150.308594 117.46875 149.773438 119.363281 C 149.421875 120.546875 149.511719 121.878906 149.699219 123.113281 L 149.519531 122.988281 C 148.285156 120.703125 145.828125 118.921875 145.113281 116.421875 C 144.5 114.4375 144.113281 112.128906 144.511719 109.96875 "/>
<path style=" stroke:none;fill-rule:nonzero;fill:rgb(0%,47.842407%,76.077271%);fill-opacity:1;" d="M 144.402344 116.882813 C 144.675781 120.644531 148.714844 122.636719 150.589844 125.742188 C 151.03125 126.378906 151.417969 127.074219 152.007813 127.605469 C 151.910156 127.222656 151.542969 126.871094 151.402344 126.46875 C 150.75 125.160156 150.507813 123.601563 150.671875 122.019531 C 150.855469 120.121094 151.65625 118.332031 151.347656 116.308594 C 153 119.863281 152.488281 124.289063 153.421875 128.136719 C 153.652344 128.976563 154.140625 129.726563 154.457031 130.535156 C 151.078125 128.226563 146.46875 126.042969 144.972656 121.8125 C 144.335938 120.359375 144.265625 118.554688 144.402344 116.882813 "/>
<path style=" stroke:none;fill-rule:nonzero;fill:rgb(0%,47.842407%,76.077271%);fill-opacity:1;" d="M 146.429688 125.511719 C 148.304688 129.777344 153.03125 130.128906 156.199219 132.726563 C 156.777344 133.238281 157.378906 133.6875 158.046875 133.992188 L 158.078125 133.957031 C 157.351563 133.296875 156.519531 132.546875 156.003906 131.703125 C 154.152344 129.117188 154.796875 125.511719 153.421875 122.738281 C 154.679688 124.25 155.808594 125.816406 156.585938 127.53125 C 157.714844 130.324219 158.148438 133.484375 160.769531 135.589844 C 157.925781 134.660156 154.605469 134.914063 152.109375 133.167969 C 149.367188 131.492188 146.933594 128.648438 146.429688 125.511719 "/>
<path style=" stroke:none;fill-rule:nonzero;fill:rgb(0%,47.842407%,76.077271%);fill-opacity:1;" d="M 151.273438 133.46875 C 154.28125 136.90625 159.21875 135.761719 163.253906 136.65625 C 163.820313 136.742188 164.34375 136.964844 164.949219 136.875 C 164.46875 136.566406 163.808594 136.597656 163.285156 136.328125 C 160.117188 135.214844 159.65625 131.800781 157.941406 129.492188 C 160.128906 130.953125 161.972656 132.914063 163.992188 134.800781 C 165.449219 136.074219 167.195313 136.664063 169.027344 137.039063 C 168.59375 137.203125 168.015625 137.160156 167.535156 137.289063 C 164.226563 138.105469 160.550781 139.421875 157.046875 138.230469 C 154.761719 137.519531 152.40625 135.714844 151.273438 133.46875 "/>
<path style=" stroke:none;fill-rule:nonzero;fill:rgb(0%,47.842407%,76.077271%);fill-opacity:1;" d="M 192.285156 141.480469 C 188.882813 142.746094 185.332031 141.417969 182.664063 139.40625 C 181.589844 138.71875 180.628906 137.738281 179.246094 137.828125 C 178.75 137.8125 178.253906 137.835938 177.820313 137.960938 C 180.40625 139.164063 182.8125 140.828125 185.011719 142.949219 C 184.636719 143.367188 184.15625 143.765625 183.703125 144.121094 C 181.589844 141.839844 179.246094 139.652344 176.621094 138.375 C 176.117188 138.441406 175.628906 138.753906 175.152344 138.992188 C 173.03125 140.351563 170.914063 142.085938 169.332031 144.203125 L 167.964844 143.074219 C 170.148438 140.882813 172.542969 139.164063 175.179688 137.9375 C 172.59375 137.128906 170.902344 139.292969 168.941406 140.394531 C 166.652344 141.988281 163.363281 142.738281 160.582031 141.644531 C 159.101563 141.070313 157.65625 140.246094 156.585938 138.894531 C 158.757813 140.394531 162.003906 140.550781 164.480469 139.578125 C 167.804688 138.132813 171.25 136.300781 175.257813 137.183594 C 175.886719 137.199219 176.5 137.8125 177.085938 137.289063 C 180.0625 136.507813 183.429688 137.039063 185.992188 138.410156 L 188.648438 139.457031 C 191.097656 140.363281 194.265625 140.117188 196.375 138.621094 C 195.289063 139.976563 193.820313 140.933594 192.285156 141.480469 "/>
<path style=" stroke:none;fill-rule:nonzero;fill:rgb(0%,47.842407%,76.077271%);fill-opacity:1;" d="M 195.941406 137.960938 C 192.117188 139.40625 188.265625 137.632813 184.605469 137.039063 L 183.890625 136.949219 L 183.890625 136.925781 C 185.644531 136.53125 187.347656 136.007813 188.742188 134.75 C 190.796875 132.773438 192.621094 130.742188 194.914063 129.1875 C 193.214844 131.359375 193.039063 134.433594 190.246094 135.84375 C 189.550781 136.292969 188.683594 136.367188 187.964844 136.71875 C 188.984375 136.742188 189.917969 136.367188 190.921875 136.269531 C 194.671875 135.683594 198.957031 136.277344 201.585938 133.09375 C 200.601563 135.316406 198.167969 137.183594 195.941406 137.960938 "/>
<path style=" stroke:none;fill-rule:nonzero;fill:rgb(0%,47.842407%,76.077271%);fill-opacity:1;" d="M 202.882813 127.210938 C 201.378906 128.191406 199.839844 129.109375 198.394531 130.234375 L 198.394531 130.09375 C 200.621094 126.402344 199.527344 121.332031 200.894531 117.265625 L 201.414063 115.90625 C 201.121094 118.429688 202.230469 120.578125 202.148438 123.113281 C 202.0625 124.648438 201.574219 126.003906 200.753906 127.238281 L 200.894531 127.238281 C 201.992188 125.808594 202.835938 124.289063 204.105469 122.917969 C 206.09375 121.019531 208.097656 119.070313 208.355469 116.421875 C 209.027344 120.832031 206.554688 124.707031 202.882813 127.210938 "/>
<path style=" stroke:none;fill-rule:nonzero;fill:rgb(0%,47.842407%,76.077271%);fill-opacity:1;" d="M 196.828125 102.75 C 193.113281 94.828125 184.9375 89.796875 176.386719 89.78125 C 172.644531 89.863281 169.199219 90.679688 166.054688 92.238281 C 160.464844 94.902344 155.890625 100.707031 154.359375 106.449219 C 151.855469 116.121094 155.257813 125.90625 163.550781 131.597656 C 169.519531 135.871094 179.03125 136.6875 185.730469 133.410156 C 191.667969 130.914063 196.777344 124.769531 198.335938 118.699219 C 199.863281 113.5625 199.195313 107.300781 196.828125 102.75 M 197.90625 110.761719 C 197.957031 111.144531 197.859375 111.605469 198.082031 111.929688 L 194.8125 111.980469 C 194.730469 112.039063 194.648438 112.085938 194.542969 112.085938 L 194.632813 111.949219 C 194.566406 109.390625 193.894531 107.078125 192.910156 104.898438 C 192.878906 103.925781 191.933594 103.265625 191.527344 102.417969 C 190.796875 101.917969 190.582031 101.027344 189.757813 100.59375 C 189.601563 100.414063 189.535156 100.136719 189.289063 100.078125 L 189.675781 100 C 190.457031 99.195313 191.304688 98.414063 191.933594 97.574219 C 195.320313 101.386719 197.46875 105.707031 197.90625 110.761719 M 188.671875 123.039063 C 188.382813 122.761719 188.371094 122.230469 187.871094 122.246094 C 187.691406 122.222656 187.632813 122.378906 187.632813 122.523438 C 187.621094 122.589844 187.648438 122.6875 187.601563 122.738281 L 186.574219 121.832031 C 187.054688 121.585938 187.414063 120.929688 187.789063 120.449219 C 188.742188 119.125 189.304688 117.640625 189.777344 116.121094 C 189.9375 116.242188 190.140625 116.257813 190.292969 116.152344 C 190.445313 116.023438 190.480469 115.792969 190.378906 115.628906 L 190.003906 115.214844 C 190.046875 114.535156 190.234375 113.867188 190.164063 113.179688 L 190.410156 113.253906 C 191.46875 113.246094 192.550781 113.304688 193.566406 113.210938 L 193.410156 113.390625 C 193.148438 117.492188 191.714844 121.183594 188.859375 124.207031 C 188.984375 123.8125 188.613281 123.472656 188.671875 123.039063 M 185.992188 126.304688 C 185.410156 125.765625 186.363281 125.300781 186.550781 124.804688 C 186.445313 124.273438 185.851563 123.984375 185.398438 123.832031 C 185.183594 123.707031 185.253906 123.4375 185.238281 123.257813 C 185.445313 123.046875 185.644531 122.882813 185.75 122.613281 L 185.828125 122.824219 L 187.226563 124.265625 C 187.226563 124.597656 187.277344 124.875 187.601563 125.023438 C 187.757813 125.089844 187.925781 124.957031 188.066406 125 L 187.984375 125 C 187.382813 125.660156 186.644531 126.160156 185.96875 126.691406 L 185.8125 126.910156 C 185.730469 126.675781 186.191406 126.582031 185.992188 126.304688 M 179.648438 108.710938 C 179.476563 108.785156 179.277344 108.910156 179.066406 108.816406 C 178.878906 108.605469 178.628906 108.34375 178.308594 108.304688 C 178.09375 108.363281 177.957031 108.628906 177.691406 108.484375 C 178.09375 108.042969 178.828125 107.96875 179.132813 107.355469 C 179.226563 107.0625 179.296875 106.753906 179.265625 106.449219 C 179.152344 106.3125 178.984375 106.1875 178.832031 106.3125 C 178.609375 106.6875 178.085938 106.761719 177.84375 107.160156 L 177.027344 106.890625 C 176.898438 106.132813 177.085938 105.191406 176.867188 104.539063 C 177.296875 104.703125 177.773438 104.710938 178.238281 104.816406 C 179.390625 105.109375 180.449219 105.65625 181.464844 106.289063 C 181.230469 106.367188 180.972656 106.660156 180.785156 106.832031 C 180.777344 107.03125 181 106.980469 181.089844 107.105469 L 181.3125 107.015625 C 180.957031 107.914063 179.785156 107.773438 179.648438 108.710938 M 180.605469 118.113281 C 180.582031 118.523438 180.007813 118.511719 179.738281 118.792969 C 179.574219 118.734375 179.699219 118.578125 179.738281 118.480469 C 180.007813 118.269531 180.207031 118.0625 180.605469 118.113281 M 187.035156 107.242188 C 187.402344 107.316406 187.632813 107.765625 188.007813 107.839844 C 188.347656 108.363281 188.472656 108.964844 188.648438 109.554688 C 188.335938 109.898438 188.316406 110.664063 187.648438 110.535156 C 187.496094 110.167969 187.949219 109.953125 187.855469 109.613281 C 187.964844 109.523438 188.144531 109.472656 188.171875 109.316406 C 188.15625 108.964844 187.714844 109.039063 187.648438 108.6875 C 187.519531 108.484375 187.296875 108.507813 187.113281 108.441406 C 186.679688 108.246094 186.28125 109.324219 186.15625 108.460938 C 186.300781 108.359375 186.375 108.183594 186.28125 108.042969 C 185.894531 107.832031 185.863281 107.308594 185.457031 107.105469 C 184.898438 107.121094 184.386719 106.867188 183.835938 106.996094 C 183.480469 106.914063 183.085938 106.679688 182.8125 107.046875 C 182.78125 107.332031 182.632813 107.570313 182.589844 107.839844 C 182.46875 107.773438 182.351563 107.644531 182.289063 107.519531 C 183.285156 106.402344 184.433594 105.273438 185.480469 104.1875 L 185.539063 104.054688 C 186.0625 104.703125 186.667969 105.339844 187.054688 106.074219 C 187.140625 106.5 186.3125 106.949219 187.035156 107.242188 M 189.023438 113.253906 C 188.824219 113.867188 188.851563 114.5625 188.6875 115.191406 C 188.660156 115.296875 188.660156 115.417969 188.59375 115.523438 C 188.394531 115.140625 188.230469 114.625 187.789063 114.398438 C 187.414063 114.199219 187.648438 113.679688 187.308594 113.449219 L 186.949219 113.097656 C 187.554688 113.359375 188.335938 113.285156 189.023438 113.253906 M 184.277344 103.617188 C 183.679688 104.300781 182.910156 104.914063 182.394531 105.632813 L 182.316406 105.390625 C 180.832031 104.179688 179.109375 103.574219 177.222656 103.3125 L 176.933594 103.363281 L 176.953125 100.300781 L 176.835938 100.046875 C 178.085938 100.234375 179.34375 100.40625 180.496094 100.816406 C 181.972656 101.335938 183.328125 102.128906 184.582031 103.175781 L 184.851563 103.289063 L 184.277344 103.617188 M 181.171875 120.425781 C 182.171875 120.523438 183.117188 120.734375 184.003906 121.078125 C 184.246094 121.078125 184.492188 121.054688 184.636719 120.882813 C 184.582031 120.515625 185.03125 120.335938 184.992188 119.960938 C 185.183594 119.65625 185.050781 119.199219 185.320313 118.9375 C 185.355469 118.53125 185.304688 118.089844 185.050781 117.789063 C 184.796875 117.617188 184.570313 117.828125 184.328125 117.867188 C 184.058594 118.066406 184.15625 118.667969 183.679688 118.546875 C 183.570313 118.699219 183.351563 118.699219 183.199219 118.660156 C 183.164063 118.609375 183.085938 118.59375 183.109375 118.523438 C 183.453125 118.351563 184.046875 118.457031 184.089844 117.917969 C 184.339844 117.707031 184.726563 117.796875 184.96875 117.535156 C 185.136719 117.265625 185.214844 117.027344 185.457031 116.773438 C 185.480469 116.660156 185.53125 116.554688 185.515625 116.421875 C 185.578125 116.585938 185.578125 116.792969 185.789063 116.882813 C 186.050781 116.96875 186.15625 116.75 186.28125 116.585938 C 186.269531 116.488281 186.335938 116.355469 186.429688 116.453125 C 186.710938 116.667969 187.113281 116.488281 187.433594 116.511719 C 187.714844 116.40625 188.03125 116.355469 188.335938 116.347656 C 188.066406 117.589844 187.425781 118.757813 186.679688 119.851563 C 186.394531 120.203125 186.148438 120.578125 185.828125 120.921875 C 185.730469 120.660156 185.738281 120.308594 185.515625 120.058594 L 185.375 120.097656 C 185.191406 120.464844 184.828125 120.761719 184.875 121.183594 C 184.605469 121.617188 183.914063 121.25 183.515625 121.484375 C 183.03125 121.625 182.757813 121.152344 182.375 121.054688 C 181.941406 120.867188 181.441406 120.855469 181.035156 120.644531 C 181.023438 120.546875 181.078125 120.464844 181.171875 120.425781 M 179.050781 91.175781 C 183.59375 91.796875 187.660156 93.601563 191.097656 96.867188 L 190.703125 97.023438 C 190.082031 97.703125 189.363281 98.25 188.996094 99.015625 C 188.949219 98.796875 188.636719 98.648438 188.53125 98.445313 C 188.460938 97.824219 187.863281 97.230469 187.328125 96.910156 C 186.882813 96.835938 186.789063 96.160156 186.238281 96.371094 C 185.789063 95.988281 185.214844 96.265625 184.78125 96.484375 L 184.78125 96.542969 C 182.617188 95.316406 180.207031 94.550781 177.601563 94.363281 C 177.480469 94.363281 177.421875 94.460938 177.273438 94.441406 C 177.421875 94.351563 177.34375 94.078125 177.332031 93.914063 C 177.269531 93.804688 177.132813 93.667969 176.972656 93.757813 C 176.921875 93.832031 176.867188 93.929688 176.867188 94.035156 C 176.945313 93.015625 176.972656 91.796875 176.835938 90.890625 C 177.527344 91.105469 178.320313 91.039063 179.050781 91.175781 M 178.179688 95.71875 C 180.160156 95.960938 181.917969 96.503906 183.679688 97.296875 C 183.945313 97.703125 184.457031 97.882813 184.527344 98.390625 C 184.257813 99.074219 185.445313 99.066406 184.90625 99.777344 C 184.875 100 185.074219 100.121094 185.148438 100.300781 C 185.214844 100.488281 185.117188 100.78125 185.34375 100.894531 C 185.75 100.992188 185.914063 100.445313 186.335938 100.59375 C 186.867188 100.976563 186.980469 101.613281 186.980469 102.195313 C 187.042969 102.570313 187.359375 102.824219 187.683594 102.960938 C 188.359375 102.757813 188.046875 103.507813 188.507813 103.699219 C 189.035156 103.769531 189.289063 104.433594 189.871094 104.382813 C 190.378906 104.769531 190.660156 105.332031 191.117188 105.757813 C 191.105469 105.871094 191.164063 105.960938 191.25 105.992188 C 191.527344 106.058594 191.691406 105.871094 191.933594 105.863281 C 192.8125 107.644531 193.238281 109.636719 193.410156 111.734375 L 193.507813 111.949219 C 192.410156 111.941406 191.304688 111.957031 190.1875 112.027344 C 190.152344 111.390625 190.203125 110.699219 189.839844 110.175781 C 190.015625 109.847656 190.046875 109.398438 190.023438 109.015625 C 189.964844 108.835938 189.8125 108.988281 189.742188 109.015625 C 189.375 109.363281 189.324219 109.855469 189.132813 110.265625 C 188.824219 110.699219 188.777344 111.375 188.960938 111.875 L 189.101563 112.003906 L 187.832031 111.980469 C 188.136719 111.792969 187.566406 111.421875 187.871094 111.113281 L 188.449219 111 C 188.636719 110.582031 189.089844 110.265625 189.078125 109.773438 C 189.324219 109.464844 189.550781 109.070313 189.375 108.664063 C 189.101563 108.042969 189.839844 107.390625 189.265625 106.808594 C 189.324219 106.636719 189.199219 106.390625 188.996094 106.402344 C 188.816406 106.34375 188.613281 106.402344 188.613281 106.15625 C 188.707031 105.992188 188.972656 105.84375 188.917969 105.585938 C 188.777344 105.414063 188.570313 105.566406 188.394531 105.550781 C 188.347656 105.273438 188.859375 104.988281 188.414063 104.734375 C 188.113281 104.679688 187.9375 105.0625 187.632813 104.929688 C 187.496094 104.816406 187.390625 104.621094 187.519531 104.457031 L 186.84375 103.617188 C 186.777344 103.542969 186.585938 103.664063 186.574219 103.507813 C 186.613281 102.839844 185.800781 102.457031 185.75 101.789063 C 185.503906 101.566406 185.703125 101.148438 185.375 100.953125 C 185.191406 100.816406 184.992188 100.660156 184.738281 100.765625 C 184.457031 100.347656 184.121094 99.949219 183.734375 99.589844 C 183.628906 99.5625 183.550781 99.628906 183.480469 99.695313 C 183.550781 100.007813 183.914063 100.1875 183.890625 100.539063 C 183.835938 100.535156 183.792969 100.539063 183.757813 100.59375 C 183.804688 100.914063 184.070313 101.183594 184.277344 101.410156 C 182.5 100.03125 180.402344 99.320313 178.179688 98.953125 C 177.738281 98.945313 177.296875 98.765625 176.867188 98.910156 C 176.972656 97.921875 176.910156 96.804688 176.933594 95.742188 L 176.816406 95.523438 C 177.234375 95.757813 177.691406 95.652344 178.179688 95.71875 M 176.273438 108.800781 L 176.464844 108.90625 C 176.226563 108.910156 175.953125 108.761719 175.746094 108.925781 C 175.617188 109.039063 175.703125 109.21875 175.746094 109.347656 C 176.164063 109.496094 176.25 110.167969 176.792969 109.90625 C 177.015625 109.953125 177.296875 109.996094 177.378906 110.265625 C 177.71875 110.386719 177.75 110.964844 178.203125 110.835938 C 178.179688 111.054688 178.105469 111.433594 178.363281 111.601563 C 178.296875 111.792969 178.050781 111.875 178.0625 112.117188 C 178.003906 112.191406 177.957031 112.304688 178.015625 112.394531 C 178.4375 112.4375 178.414063 112.910156 178.609375 113.179688 C 178.519531 113.507813 178.628906 113.847656 178.914063 114.03125 C 178.867188 114.414063 178.695313 114.742188 178.527344 115.089844 C 178.085938 115.296875 177.355469 114.75 177.199219 115.546875 C 176.953125 115.820313 177.167969 116.421875 176.679688 116.453125 C 175.746094 116.519531 174.882813 116.308594 174.171875 115.761719 C 174.636719 115.523438 175.429688 115.859375 175.59375 115.164063 C 175.710938 115.066406 175.757813 114.878906 175.703125 114.730469 C 175.914063 114.511719 176 114.234375 176.117188 113.972656 C 175.941406 113.792969 176.019531 113.703125 176.050781 113.507813 C 175.59375 113.03125 174.953125 113.285156 174.359375 113.285156 C 174.011719 113.492188 174.347656 113.882813 174.105469 114.136719 C 173.664063 114.183594 173.652344 114.625 173.332031 114.886719 C 173.148438 114.8125 173.019531 114.5625 173.03125 114.375 L 173.082031 114.375 C 173.054688 114.464844 173.125 114.539063 173.199219 114.5625 C 173.625 114.644531 173.496094 114.152344 173.625 113.9375 C 173.695313 113.660156 174.324219 113.285156 173.816406 113.097656 C 173.796875 112.984375 173.882813 112.835938 173.742188 112.765625 C 173.582031 112.835938 173.316406 112.835938 173.300781 113.074219 C 173.382813 113.285156 173.300781 113.484375 173.125 113.621094 L 173.03125 113.621094 C 173.054688 113.484375 172.964844 113.390625 172.867188 113.34375 C 172.609375 113.359375 172.394531 113.554688 172.132813 113.484375 C 171.761719 113.5625 171.355469 113.628906 170.980469 113.636719 C 170.933594 113.417969 171.273438 113.492188 171.34375 113.285156 C 171.285156 112.945313 171.511719 112.746094 171.667969 112.488281 C 171.75 112.398438 171.925781 112.4375 172.019531 112.46875 C 172.121094 112.566406 172.207031 112.648438 172.34375 112.609375 L 172.460938 112.414063 C 172.789063 112.617188 172.609375 113.597656 173.277344 113.179688 C 173.382813 112.757813 173.289063 112.257813 173.472656 111.875 C 173.316406 111.511719 173.707031 111.359375 173.816406 111.113281 C 174.171875 111.144531 174.132813 110.746094 174.28125 110.566406 C 174.816406 110.410156 175.386719 110.28125 175.726563 109.71875 C 175.59375 109.429688 175.683594 109.023438 175.453125 108.800781 C 175.695313 108.710938 176.085938 108.589844 176.273438 108.800781 M 175.746094 129.84375 L 175.429688 129.636719 C 171.214844 129.402344 167.601563 127.679688 164.445313 124.917969 C 164.953125 124.875 165.148438 125.546875 165.707031 125.375 C 166.320313 125.300781 166.789063 124.8125 167.441406 124.917969 C 167.757813 124.933594 168.15625 124.917969 168.351563 124.613281 C 168.453125 124.273438 168.09375 124.101563 168.023438 123.832031 C 170.171875 125.429688 172.582031 126.445313 175.339844 126.582031 L 175.617188 126.46875 L 175.617188 129.464844 L 175.746094 129.84375 M 163.859375 113.484375 L 163.683594 113.210938 C 164.03125 113.457031 164.378906 113.382813 164.777344 113.304688 C 164.214844 113.492188 164.425781 114.183594 164.203125 114.585938 C 164.167969 114.796875 164.480469 114.855469 164.445313 115.066406 C 164.167969 115.191406 164.144531 115.492188 164.019531 115.71875 C 164.167969 114.945313 163.882813 114.234375 163.859375 113.484375 M 160.410156 117.402344 C 160.109375 117.429688 160.191406 117.769531 160.066406 117.941406 C 160.085938 117.148438 159.734375 116.382813 159.636719 115.574219 L 159.382813 113.484375 L 159.242188 113.285156 C 160.253906 113.433594 161.34375 113.34375 162.398438 113.367188 L 162.652344 113.253906 C 162.5625 113.75 162.539063 114.472656 162.90625 114.921875 C 162.785156 114.789063 162.597656 114.390625 162.308594 114.398438 C 161.722656 114.4375 161.675781 115.191406 161.09375 115.214844 C 160.617188 115.613281 160.550781 116.175781 160.453125 116.722656 C 160.648438 116.929688 160.285156 117.148438 160.410156 117.402344 M 162.726563 112.136719 L 162.433594 112.027344 L 159.324219 112.085938 C 159.613281 108.605469 160.5625 105.421875 162.574219 102.675781 L 163.808594 101.117188 L 163.820313 100.894531 C 164.554688 101.746094 165.355469 102.539063 166.222656 103.289063 C 163.980469 105.691406 162.855469 108.574219 162.597656 111.816406 C 162.640625 111.929688 162.609375 112.0625 162.726563 112.136719 M 175.617188 98.910156 C 175.019531 98.78125 174.425781 98.984375 173.816406 99.042969 C 171.285156 99.566406 168.941406 100.644531 167.015625 102.496094 L 166.933594 102.277344 C 166.171875 101.582031 165.472656 100.699219 164.644531 100.160156 C 165.367188 99.722656 166.011719 99.097656 166.71875 98.601563 C 169.351563 96.835938 172.300781 95.832031 175.59375 95.644531 C 175.476563 96.707031 175.566406 97.828125 175.617188 98.910156 M 170.527344 116.039063 C 170.539063 116.152344 170.679688 116.257813 170.800781 116.175781 C 170.925781 116.003906 170.527344 115.71875 170.820313 115.613281 C 170.996094 115.816406 170.914063 116.152344 171.015625 116.382813 C 171.109375 116.519531 171.144531 116.660156 171.121094 116.824219 C 170.8125 117.207031 170.386719 117.535156 170.171875 117.941406 C 169.960938 117.429688 169.511719 117.027344 169.300781 116.511719 C 168.976563 115.910156 168.808594 115.238281 168.480469 114.652344 C 168.753906 114.992188 169.488281 114.601563 169.488281 115.253906 C 169.53125 115.28125 169.609375 115.273438 169.652344 115.273438 C 169.746094 115.171875 169.757813 115.164063 169.878906 115.214844 C 169.929688 115.335938 170.199219 115.378906 169.984375 115.523438 C 170.0625 115.761719 170.265625 115.988281 170.527344 116.039063 M 173.894531 124.882813 L 174.4375 125.136719 C 172.472656 124.648438 170.351563 123.96875 168.644531 122.550781 C 168.351563 122.378906 168.15625 121.992188 167.804688 121.96875 C 168.605469 121.332031 169.394531 120.472656 170.0625 119.65625 C 170.363281 120.203125 170.984375 120.5 171.480469 120.855469 C 172.34375 121.25 173.238281 121.984375 174.234375 121.78125 C 173.921875 121.894531 173.640625 122.066406 173.390625 122.335938 C 173.253906 122.644531 173.300781 123.09375 172.890625 123.226563 C 172.914063 123.878906 173.496094 124.414063 173.894531 124.882813 M 166.660156 120.882813 L 166.554688 120.179688 C 165.902344 119.59375 166.105469 118.609375 166 117.867188 C 165.542969 117.5 165.914063 116.90625 165.597656 116.511719 C 165.609375 115.84375 164.578125 115.613281 164.890625 114.886719 C 164.765625 114.707031 164.609375 114.464844 164.753906 114.25 C 164.953125 114.003906 165.402344 114.265625 165.53125 113.914063 L 165.632813 113.304688 C 165.867188 113.179688 166.210938 113.484375 166.332031 113.15625 C 166.558594 112.585938 165.484375 111.898438 166.414063 111.601563 C 166.71875 111.5625 167.136719 111.503906 167.257813 111.875 C 167.328125 112.304688 167.441406 112.765625 167.28125 113.210938 C 167.578125 113.320313 167.304688 113.582031 167.304688 113.769531 C 167.117188 113.851563 166.953125 114.039063 166.746094 113.972656 C 166.652344 113.824219 166.488281 113.5625 166.269531 113.582031 C 166.105469 113.824219 166.347656 114.070313 166.3125 114.347656 C 166.261719 114.496094 166.292969 114.683594 166.199219 114.8125 C 166.117188 114.75 166.039063 114.722656 165.925781 114.730469 C 165.726563 114.832031 165.855469 115.035156 165.902344 115.164063 C 166.105469 115.28125 166.261719 115.484375 166.488281 115.492188 L 166.605469 115.359375 C 166.582031 114.992188 166.753906 114.707031 166.761719 114.347656 L 167.09375 114.511719 C 167.394531 115.925781 168.03125 117.207031 168.839844 118.40625 L 169.269531 118.847656 C 168.234375 119.738281 167.222656 120.808594 166.359375 121.8125 L 166.359375 121.832031 C 166.347656 121.796875 166.3125 121.601563 166.171875 121.675781 C 166.082031 121.242188 166.789063 121.378906 166.660156 120.882813 M 168.234375 107.457031 C 167.921875 107.636719 167.664063 107.960938 167.476563 108.253906 C 167.207031 108.417969 166.855469 108.410156 166.628906 108.710938 C 166.628906 108.835938 166.777344 108.996094 166.605469 109.089844 C 166.347656 109.347656 165.800781 109.023438 165.675781 109.496094 C 165.632813 109.921875 165.128906 110.152344 165.160156 110.625 C 164.890625 110.804688 164.9375 111.15625 164.964844 111.441406 C 165.117188 111.621094 164.902344 111.949219 165.160156 112.085938 C 164.714844 112.027344 164.144531 111.957031 163.738281 112.136719 C 163.957031 111.628906 163.890625 111 164.019531 110.453125 C 164.433594 108.101563 165.492188 106.035156 167.070313 104.164063 C 167.851563 104.933594 168.6875 105.84375 169.582031 106.5 C 168.929688 106.53125 168.917969 107.480469 168.234375 107.457031 M 175.234375 119.691406 C 175.074219 119.945313 175.199219 120.335938 175.125 120.644531 C 173.617188 120.382813 172.253906 119.761719 171.039063 118.757813 C 171.71875 118.023438 172.65625 117.304688 173.144531 116.511719 C 173.210938 116.863281 173.636719 117.035156 173.933594 117.207031 C 174.546875 117.476563 175.269531 117.894531 175.953125 117.609375 C 175.90625 117.640625 175.859375 117.707031 175.808594 117.746094 C 176 117.941406 175.660156 118.144531 175.886719 118.332031 C 175.933594 118.472656 175.738281 118.449219 175.726563 118.5625 C 175.847656 118.773438 175.695313 119.132813 176.019531 119.199219 C 176.105469 119.316406 176.019531 119.488281 175.886719 119.496094 C 175.660156 119.453125 175.351563 119.445313 175.234375 119.691406 M 171.585938 116.285156 C 171.785156 116.085938 171.980469 115.835938 172.042969 115.546875 L 172.4375 115.746094 C 172.085938 115.761719 171.886719 116.121094 171.621094 116.308594 L 171.585938 116.285156 M 174.753906 107.046875 C 174.683594 106.890625 174.875 106.71875 174.695313 106.613281 C 174.171875 106.851563 174.359375 107.4375 174.011719 107.8125 C 173.953125 108.101563 173.570313 107.960938 173.390625 108.125 C 173.253906 107.902344 172.984375 107.914063 172.777344 108.042969 C 172.507813 108.042969 172.472656 107.480469 172.183594 107.765625 C 172.109375 107.855469 172.148438 108.058594 171.9375 107.976563 C 171.886719 107.902344 171.808594 107.894531 171.75 107.839844 C 171.738281 107.667969 172.03125 107.699219 171.9375 107.496094 C 171.730469 107.128906 171.285156 107.179688 171.015625 106.914063 L 170.761719 106.914063 C 172.109375 105.496094 173.785156 104.867188 175.617188 104.628906 C 175.59375 105.445313 175.523438 106.367188 175.78125 107.105469 C 175.5 106.753906 175.097656 107.195313 174.753906 107.046875 M 175.652344 103.363281 C 175.054688 103.238281 174.5 103.507813 173.933594 103.566406 C 172.664063 103.878906 171.542969 104.582031 170.46875 105.355469 C 170.414063 105.445313 170.363281 105.527344 170.304688 105.609375 C 169.519531 104.914063 168.742188 103.957031 167.886719 103.347656 C 170.074219 101.542969 172.566406 100.339844 175.453125 100.136719 L 175.652344 100.023438 C 175.523438 101.125 175.523438 102.300781 175.652344 103.363281 M 163.363281 95.335938 C 166.953125 92.738281 170.996094 91.195313 175.566406 91.011719 L 175.476563 91.332031 L 175.511719 94.058594 L 175.617188 94.335938 C 171.191406 94.53125 167.328125 96.183594 164.019531 99.207031 L 163.957031 99.367188 C 163.203125 98.542969 162.34375 97.605469 161.445313 96.953125 L 161.34375 96.953125 C 162.050781 96.535156 162.664063 95.808594 163.363281 95.335938 M 154.910156 110.039063 C 155.492188 105.355469 157.484375 101.253906 160.722656 97.652344 L 160.800781 97.957031 C 161.574219 98.714844 162.34375 99.53125 163.09375 100.21875 C 162.445313 100.644531 162.074219 101.371094 161.5625 101.957031 C 159.535156 104.832031 158.371094 108.058594 158.15625 111.675781 L 158.238281 112.117188 C 157.101563 112.027344 155.855469 112.027344 154.734375 112.117188 C 154.867188 111.433594 154.785156 110.722656 154.910156 110.039063 M 157.53125 123.308594 C 155.890625 120.285156 154.941406 116.972656 154.757813 113.34375 L 157.902344 113.367188 L 158.210938 113.253906 C 158.167969 113.417969 158.191406 113.636719 158.171875 113.890625 L 158.15625 113.851563 C 158.066406 113.929688 158.222656 113.957031 158.210938 114.03125 C 158.273438 115.230469 158.488281 116.363281 158.757813 117.476563 L 158.917969 117.722656 C 158.675781 117.515625 158.589844 117.25 158.40625 117.027344 C 158.148438 117.070313 157.863281 117.125 157.671875 117.304688 C 157.796875 117.617188 157.464844 117.519531 157.320313 117.609375 C 157.273438 117.535156 157.179688 117.445313 157.089844 117.402344 C 156.847656 117.410156 156.605469 117.429688 156.507813 117.671875 C 156.539063 117.84375 156.34375 117.917969 156.28125 118.0625 C 156.207031 118.5625 156.039063 119.238281 156.414063 119.65625 C 156.417969 120.03125 156.605469 120.367188 156.867188 120.613281 C 156.992188 120.636719 157.046875 120.546875 157.125 120.515625 C 157.425781 120.734375 157.589844 121.289063 158.046875 121.183594 C 158.171875 121.125 158.136719 120.980469 158.171875 120.882813 C 158.417969 121.125 158.53125 121.601563 158.972656 121.566406 C 159.089844 121.675781 159.140625 121.878906 159.324219 121.894531 C 159.804688 121.765625 159.636719 122.433594 159.988281 122.636719 C 160.257813 122.800781 160.398438 123.203125 160.800781 123.007813 L 160.929688 122.84375 C 161.058594 122.933594 160.957031 123.160156 161.070313 123.285156 C 161.269531 123.644531 161.652344 123.914063 162.027344 124.011719 C 162.355469 124.386719 162.699219 124.828125 163.09375 125.105469 L 162.816406 125.210938 L 160.550781 127.554688 C 159.523438 126.160156 158.335938 124.804688 157.53125 123.308594 M 173.523438 134.066406 C 168.964844 133.445313 164.964844 131.46875 161.421875 128.402344 L 163.765625 126.066406 L 163.808594 125.921875 C 167.03125 129.042969 170.945313 130.609375 175.375 130.914063 L 175.726563 130.828125 L 175.617188 131 L 175.617188 134.066406 L 175.78125 134.335938 C 175.074219 134.128906 174.246094 134.195313 173.523438 134.066406 M 176.273438 121.207031 C 176.019531 121.242188 175.816406 121.21875 175.617188 121.128906 C 175.511719 121.125 175.546875 121.003906 175.511719 120.9375 C 175.847656 120.949219 176 120.554688 176.355469 120.613281 C 176.554688 120.425781 176.59375 120.121094 176.867188 120.015625 C 176.78125 119.730469 177.144531 119.917969 177.222656 119.753906 C 177.320313 119.65625 177.457031 119.550781 177.601563 119.632813 C 177.832031 119.960938 178.296875 119.828125 178.527344 120.203125 C 178.636719 120.246094 178.683594 120.121094 178.660156 120.042969 L 178.660156 119.910156 C 179.03125 119.871094 179.207031 120.390625 179.59375 120.042969 C 179.6875 119.960938 179.660156 119.796875 179.59375 119.714844 C 179.554688 119.691406 179.5 119.664063 179.488281 119.609375 C 179.75 119.488281 179.894531 120.007813 180.222656 119.828125 C 180.476563 119.609375 180.652344 119.339844 181.011719 119.339844 L 181.089844 119.445313 C 181.144531 120.121094 180.570313 120.539063 180.0625 120.832031 C 179.738281 120.972656 179.132813 120.929688 179.152344 121.460938 C 178.777344 121.796875 178.425781 121.25 177.960938 121.40625 C 177.738281 121.289063 177.957031 120.972656 177.652344 120.921875 C 177.183594 121.125 176.609375 120.664063 176.273438 121.207031 M 177.105469 126.96875 C 177.515625 127.140625 178.226563 126.789063 178.445313 127.261719 C 178.320313 127.515625 178.113281 127.769531 178.203125 128.085938 C 178.363281 128.503906 178.617188 129.050781 179.152344 129.089844 C 179.285156 129.277344 179.476563 129.3125 179.648438 129.378906 C 178.75 129.53125 177.761719 129.484375 176.933594 129.769531 C 177.039063 128.859375 176.933594 127.890625 176.933594 126.96875 L 176.757813 126.714844 C 176.921875 126.738281 176.996094 126.871094 177.105469 126.96875 M 177.144531 134.226563 L 176.933594 134.359375 C 177.007813 133.207031 177.007813 131.957031 176.933594 130.796875 C 177.492188 131 178.09375 130.78125 178.695313 130.78125 L 180.4375 130.472656 C 181.300781 130.640625 181.90625 132.039063 182.863281 131.1875 C 183.199219 130.789063 183.769531 130.828125 183.980469 130.28125 C 184.539063 130.078125 184.667969 129.507813 185.074219 129.140625 C 185.445313 128.085938 186.644531 127.914063 187.382813 127.179688 C 187.914063 126.699219 188.625 126.304688 188.941406 125.675781 L 188.996094 125.953125 L 191.386719 128.234375 C 187.335938 131.917969 182.617188 133.992188 177.144531 134.226563 M 197.980469 113.417969 C 197.769531 118.734375 195.785156 123.316406 192.320313 127.285156 L 192.226563 127.457031 C 191.515625 126.671875 190.5625 125.652344 189.699219 124.972656 C 190.222656 124.613281 190.617188 124 191.027344 123.503906 C 193.191406 120.546875 194.449219 117.207031 194.632813 113.417969 L 194.519531 113.121094 L 194.707031 113.253906 L 197.945313 113.230469 L 198.117188 113.15625 L 197.980469 113.417969 "/>
<path style=" stroke:none;fill-rule:nonzero;fill:rgb(0%,47.842407%,76.077271%);fill-opacity:1;" d="M 186.429688 95.605469 C 186.425781 95.734375 186.445313 95.839844 186.511719 95.9375 C 186.984375 96.109375 187.042969 96.804688 187.648438 96.640625 C 187.84375 96.4375 187.542969 96.222656 187.601563 95.960938 C 187.519531 95.71875 187.320313 95.621094 187.089844 95.546875 C 186.855469 95.777344 186.644531 95.34375 186.429688 95.605469 "/>
<path style=" stroke:none;fill-rule:nonzero;fill:rgb(0%,47.842407%,76.077271%);fill-opacity:1;" d="M 177.355469 93.683594 C 177.960938 94.453125 179.007813 94.019531 179.761719 93.871094 C 180.300781 94.101563 180.820313 93.824219 181.230469 93.480469 L 181.230469 93.40625 C 180.839844 92.867188 180.113281 92.777344 179.457031 92.71875 L 177.820313 93.429688 C 177.691406 93.367188 177.433594 93.300781 177.332031 93.480469 C 177.269531 93.546875 177.332031 93.625 177.355469 93.683594 "/>
<path style=" stroke:none;fill-rule:nonzero;fill:rgb(97.253418%,59.999084%,10.980225%);fill-opacity:1;" d="M 384.199219 117.011719 C 384.199219 161.179688 348.390625 196.972656 304.234375 196.972656 C 260.066406 196.972656 224.265625 161.179688 224.265625 117.011719 C 224.265625 72.847656 260.066406 37.042969 304.234375 37.042969 C 348.390625 37.042969 384.199219 72.847656 384.199219 117.011719 "/>
<path style=" stroke:none;fill-rule:nonzero;fill:rgb(100%,100%,100%);fill-opacity:1;" d="M 258.886719 143.769531 L 268.761719 143.769531 L 268.761719 113.71875 L 282.429688 143.769531 L 292.3125 143.769531 L 292.3125 90.238281 L 282.429688 90.238281 L 282.429688 120.210938 L 268.761719 90.238281 L 258.886719 90.238281 L 258.886719 143.769531 "/>
<path style=" stroke:none;fill-rule:nonzero;fill:rgb(100%,100%,100%);fill-opacity:1;" d="M 321.976563 90.238281 L 295.847656 90.238281 L 295.847656 143.769531 L 305.695313 143.769531 L 305.695313 121.902344 L 317.898438 121.902344 L 317.898438 112.046875 L 305.695313 112.046875 L 305.695313 100.105469 L 321.976563 100.105469 L 321.976563 90.238281 "/>
<path style=" stroke:none;fill-rule:nonzero;fill:rgb(100%,100%,100%);fill-opacity:1;" d="M 233.757813 128.863281 C 233.757813 132.105469 236.390625 134.734375 239.625 134.734375 C 242.871094 134.734375 245.496094 132.105469 245.496094 128.863281 L 245.503906 90.238281 L 255.371094 90.238281 L 255.371094 128.863281 C 255.371094 137.558594 248.328125 144.601563 239.625 144.601563 C 230.945313 144.601563 223.878906 137.558594 223.878906 128.863281 L 223.878906 90.238281 L 233.746094 90.238281 L 233.757813 128.863281 "/>
<path style=" stroke:none;fill-rule:nonzero;fill:rgb(100%,100%,100%);fill-opacity:1;" d="M 340.144531 125.082031 C 348.949219 125.082031 356.089844 117.941406 356.089844 109.136719 L 356.089844 106.179688 C 356.089844 97.375 348.949219 90.230469 340.144531 90.230469 L 325.503906 90.230469 L 325.503906 143.769531 L 335.386719 143.769531 L 335.386719 125.082031 L 340.144531 125.082031 "/>
<path style=" stroke:none;fill-rule:nonzero;fill:rgb(97.253418%,59.999084%,10.980225%);fill-opacity:1;" d="M 339.292969 115.238281 C 343.113281 115.238281 346.210938 112.136719 346.210938 108.320313 L 346.210938 107.039063 C 346.210938 103.214844 343.113281 100.113281 339.292969 100.113281 L 335.386719 100.113281 L 335.386719 115.230469 L 339.292969 115.238281 "/>
<path style=" stroke:none;fill-rule:nonzero;fill:rgb(100%,100%,100%);fill-opacity:1;" d="M 361.132813 143.769531 L 351.050781 143.769531 L 364.210938 90.238281 L 376.828125 90.238281 L 389.96875 143.769531 L 379.894531 143.769531 L 376.917969 131.613281 L 364.210938 131.613281 L 361.132813 143.769531 "/>
<path style=" stroke:none;fill-rule:nonzero;fill:rgb(97.253418%,59.999084%,10.980225%);fill-opacity:1;" d="M 374.492188 121.757813 L 366.601563 121.757813 L 370.542969 105.570313 L 374.492188 121.757813 "/>
</g>
</svg>
